<svg version="1.2" xmlns="http://www.w3.org/2000/svg" viewBox="0 0 756 206" width="756" height="206">
	<title>carrie-logo (1)</title>
	<style>
		.s0 { fill: #5c2392 } 
		.s1 { fill: #ec9f22 } 
		.s2 { fill: #aed23a } 
	</style>
	<g id="c4f972d339">
		<g>
			<g>
				<path class="s0" d="m89.4 205.2q-26.2 0-46.2-10.9-20-10.9-31.3-32.7-11.3-21.9-11.3-54 0-32 11.3-53.9 11.3-21.9 31.3-32.8 20-10.9 46.2-10.9 27.4 0 46.6 10.7 19.1 10.7 27.3 32.7l-27.4 16.7-3.3-0.1q-6-14.8-16.5-21.2-10.4-6.5-26.7-6.5-23.6 0-36.8 15.7-13.3 15.6-13.3 49.6 0 33.9 13.3 49.6 13.2 15.6 36.8 15.6 37 0 45.3-36h3.3l27.6 14.4q-7.8 27-26.6 40.5-18.8 13.5-49.6 13.5z"/>
			</g>
		</g>
		<g>
			<g>
				<path class="s1" d="m226.8 205.2q-13.8 0-23.9-5-10.1-5.1-15.6-14.9-5.4-9.8-5.4-23.5 0-12.8 5.4-21.4 5.5-8.6 16.9-14.1 11.4-5.6 29.8-8.5 12.9-2.1 19.6-4.6 6.6-2.5 9-5.6 2.3-3.1 2.3-7.9 0-6.9-4.8-10.5-4.8-3.6-15.9-3.6-12 0-22.8 5.3-10.7 5.3-18.7 14h-2.5l-15.1-22.7q10.9-12.1 26.6-18.8 15.7-6.8 34.3-6.8 28.4 0 41.1 12.1 12.7 12.1 12.7 34.3v62.1q0 9.6 8.5 9.6 3.2 0 6.3-1.1l1.9 0.5 2.5 25q-2.9 2-8.3 3.2-5.3 1.3-11.6 1.3-12.9 0-20.1-5-7.2-4.9-10.3-15.4l-2.7-0.3q-10.5 22.3-39.2 22.3zm11.4-26.8q12.4 0 19.9-8.4 7.5-8.4 7.5-23.3v-14.5l-2.5-0.6q-3.2 2.6-8.5 4.4-5.2 1.7-15.1 3.4-11.7 2-16.8 6.7-5.1 4.7-5.1 13.5 0 9.2 5.4 14 5.5 4.8 15.2 4.8z"/>
			</g>
		</g>
		<g>
			<g>
				<path class="s2" d="m342.6 202.5v-143.2h34.9v21.3l2.7 0.6q5.2-12 13.6-17.6 8.4-5.5 20.5-5.5 12.2 0 18.6 4.1l-6.1 31-2.7 0.5q-3.5-1.4-6.8-2-3.2-0.7-7.9-0.7-15.1 0-23 10.6-7.9 10.6-7.9 33.9v67z"/>
			</g>
		</g>
		<g>
			<g>
				<path class="s0" d="m454.8 202.5v-143.2h34.9v21.3l2.8 0.6q5.2-12 13.6-17.6 8.4-5.5 20.5-5.5 12.2 0 18.6 4.1l-6.1 31-2.8 0.5q-3.5-1.4-6.7-2-3.3-0.7-7.9-0.7-15.1 0-23 10.6-7.9 10.6-7.9 33.9v67z"/>
			</g>
		</g>
		<g>
			<g>
				<path class="s1" d="m585 42.2q-9.7 0-15.8-5.9-6.1-5.9-6.1-15.2 0-9.3 6.1-15.2 6.1-5.9 15.8-5.9 6.5 0 11.6 2.8 5 2.7 7.8 7.4 2.8 4.8 2.8 10.9 0 6.1-2.8 10.9-2.8 4.8-7.8 7.5-5.1 2.7-11.6 2.7zm-17.9 160.3v-143.2h36v143.2z"/>
			</g>
		</g>
		<g>
			<g>
				<path class="s2" d="m752.1 139.1h-92q1.5 18.6 10.6 27.1 9.1 8.5 24.8 8.5 12.3 0 20-4.6 7.7-4.6 12.4-13.9h2.7l23.9 15.3q-7.1 15.1-21.2 24.4-14.2 9.3-37.8 9.3-22.2 0-38.3-8.4-16.2-8.4-25-25.1-8.7-16.7-8.7-40.7 0-24.4 9.2-41.1 9.2-16.8 24.9-25 15.7-8.3 35.3-8.3 30.4 0 46.6 16.1 16.1 16.1 16.1 47.3 0 11.3-0.7 17.5zm-30.9-23.3q-0.6-16.3-7.6-23.8-7.1-7.4-20.7-7.4-27.3 0-32.1 31.2z"/>
			</g>
		</g>
	</g>
</svg>