<svg xmlns="http://www.w3.org/2000/svg" width="16" height="16" viewBox="0 0 24 24" fill="none" stroke="currentColor" stroke-width="1.7999999999999998" stroke-linecap="round" stroke-linejoin="round" class="tabler-icon tabler-icon-adjustments opacity-90"><path d="M4 10a2 2 0 1 0 4 0a2 2 0 0 0 -4 0"></path><path d="M6 4v4"></path><path d="M6 12v8"></path><path d="M10 16a2 2 0 1 0 4 0a2 2 0 0 0 -4 0"></path><path d="M12 4v10"></path><path d="M12 18v2"></path><path d="M16 7a2 2 0 1 0 4 0a2 2 0 0 0 -4 0"></path><path d="M18 4v1"></path><path d="M18 9v11"></path></svg>