<svg xmlns="http://www.w3.org/2000/svg" width="24" height="24" viewBox="0 0 24 24" color="currentColor" class="relative duration-150 [grid-area:1/-1] group-hover:scale-110 text-text-200" fill="currentColor" fill-rule="evenodd"><path d="M12.3799 0.995117C18.6621 0.995117 23.7549 6.08788 23.7549 12.3701C23.7549 18.6524 18.6621 23.7451 12.3799 23.7451C6.0977 23.7451 1.00488 18.6523 1.00488 12.3701C1.00488 6.08792 6.0977 0.995179 12.3799 0.995117ZM12.3701 2.75488C11.8475 2.75509 11.1171 3.22655 10.4121 4.58887L10.2715 4.87402C10.065 5.3106 9.54321 5.49714 9.10645 5.29102C8.66967 5.08453 8.48308 4.56284 8.68945 4.12598L8.84277 3.81445C8.93133 3.64256 9.02498 3.47428 9.12305 3.31055C7.13221 4.02636 5.44689 5.38035 4.31055 7.125H12.3809L12.4697 7.12988C12.9108 7.17482 13.2558 7.54711 13.2559 8C13.2559 8.45294 12.9108 8.82517 12.4697 8.87012L12.3809 8.875H3.41211C2.98945 9.95869 2.75488 11.1368 2.75488 12.3701C2.75488 13.6071 2.99092 14.7886 3.41602 15.875H4.94043C5.42344 15.8752 5.81537 16.2669 5.81543 16.75C5.81543 17.2331 5.42348 17.6248 4.94043 17.625H4.31738C5.45343 19.3645 7.13555 20.7142 9.12207 21.4287C8.88505 21.0314 8.66832 20.5962 8.47461 20.1318C7.62775 18.1014 7.12501 15.3566 7.125 12.3701C7.125 12.083 7.12514 11.7675 7.13574 11.46C7.15246 10.9771 7.55716 10.5996 8.04004 10.6162C8.523 10.6329 8.90142 11.0375 8.88477 11.5205C8.87538 11.7927 8.875 12.0775 8.875 12.3701C8.87501 15.1832 9.3519 17.6886 10.0898 19.458C10.4596 20.3446 10.8783 21.0053 11.2979 21.4307C11.7142 21.8527 12.0793 21.995 12.3799 21.9951C12.9373 21.9951 13.731 21.4591 14.4785 19.877L14.5215 19.7979C14.7504 19.418 15.2339 19.2656 15.6436 19.459C16.0804 19.6654 16.2679 20.1871 16.0615 20.624L15.9072 20.9355C15.8202 21.1046 15.7271 21.2695 15.6309 21.4307C17.6203 20.7168 19.305 19.3664 20.4424 17.625H12.3799C11.8967 17.6249 11.5049 17.2332 11.5049 16.75C11.5049 16.2668 11.8967 15.8751 12.3799 15.875H21.3438C21.7689 14.7886 22.0049 13.6072 22.0049 12.3701C22.0049 11.1368 21.7703 9.95871 21.3477 8.875H19.8096C19.3265 8.87477 18.9346 8.48311 18.9346 8C18.9346 7.51695 19.3266 7.12523 19.8096 7.125H20.4492C19.309 5.3744 17.6159 4.01757 15.6162 3.30371C15.8576 3.70575 16.0787 4.14659 16.2754 4.61816C17.1223 6.64864 17.625 9.39331 17.625 12.3799C17.625 12.667 17.6258 12.9825 17.6152 13.29L17.6074 13.3789C17.5476 13.8184 17.1627 14.1501 16.71 14.1348C16.2272 14.1179 15.8496 13.7123 15.8662 13.2295L15.875 12.3799C15.875 9.56674 15.3982 7.0614 14.6602 5.29199C14.2904 4.40554 13.8727 3.7447 13.4531 3.31934C13.0368 2.89735 12.6707 2.75503 12.3701 2.75488ZM12.3799 10.6201C13.3464 10.6201 14.1299 11.4036 14.1299 12.3701C14.1299 13.3366 13.3464 14.1201 12.3799 14.1201C11.4134 14.1201 10.6299 13.3366 10.6299 12.3701C10.6299 11.4037 11.4134 10.6202 12.3799 10.6201Z"></path></svg>