<svg xmlns="http://www.w3.org/2000/svg" width="20" height="20" viewBox="0 0 24 24" color="currentColor" class="size-[18px] -translate-y-px" fill="currentColor" fill-rule="evenodd"><path d="M19.6602 2C20.9486 2.00018 21.993 3.0446 21.9932 4.33301C21.9932 5.62156 20.9487 6.66682 19.6602 6.66699C19.6103 6.66699 19.5608 6.66128 19.5117 6.6582L16.9111 12.3467C16.803 12.5829 16.5903 12.7551 16.3369 12.8125C16.1151 12.8626 15.8841 12.8195 15.6963 12.6963L15.6182 12.6387L11.374 9.08691L5.05176 19.4873H10.333V13.667C10.333 13.2069 10.706 12.8342 11.166 12.834C11.6263 12.834 11.999 13.2068 11.999 13.667V19.4873H15.3203V15.333C15.3205 14.8729 15.6932 14.5 16.1533 14.5C16.6134 14.5001 16.9862 14.873 16.9863 15.333V19.4873H19.5C19.9595 19.4871 20.3328 19.1128 20.333 18.6533V9.49414C20.333 9.03406 20.706 8.66042 21.166 8.66016C21.6263 8.66016 22 9.0339 22 9.49414V18.6533C21.9998 20.0333 20.88 21.1531 19.5 21.1533H4.5C3.2062 21.1532 2.14091 20.1693 2.0127 18.9092L2 18.6533V5.33398C2 3.9538 3.11983 2.83407 4.5 2.83398H14.5L14.585 2.83789C15.0051 2.8806 15.333 3.23555 15.333 3.66699C15.3328 4.09829 15.005 4.4534 14.585 4.49609L14.5 4.5H4.5C4.04031 4.50008 3.66602 4.87427 3.66602 5.33398V18.5586L10.4541 7.39355L10.5059 7.31836C10.6338 7.15201 10.821 7.03859 11.0303 7.00391C11.2698 6.96435 11.515 7.03176 11.7012 7.1875L15.8496 10.6582L17.9951 5.96777C17.5817 5.54678 17.3262 4.96964 17.3262 4.33301C17.3263 3.04449 18.3716 2 19.6602 2Z"></path></svg>