<svg xmlns="http://www.w3.org/2000/svg" width="24" height="24" viewBox="0 0 24 24" color="currentColor" class="relative duration-150 [grid-area:1/-1] group-hover:scale-110 text-text scale-110" fill="currentColor" fill-rule="evenodd"><path d="M18.8809 18.8809C19.2013 18.5604 19.7091 18.5407 20.0527 18.8213L20.1191 18.8809L22.3086 21.0713L22.3691 21.1377C22.6493 21.4814 22.6289 21.9883 22.3086 22.3086C21.9883 22.6288 21.4813 22.6493 21.1377 22.3691L21.0713 22.3086L18.8809 20.1191L18.8213 20.0527C18.5407 19.7091 18.5605 19.2013 18.8809 18.8809ZM10.75 2.00488C15.5724 2.00494 19.5048 5.92589 19.5049 10.7598C19.5049 15.593 15.5832 19.5146 10.75 19.5146H9.875V19.4502C5.46095 19.01 1.9953 15.278 1.99512 10.7402C1.99512 5.90341 5.93043 2.00495 10.75 2.00488ZM10.75 3.75488C6.88968 3.75495 3.74512 6.87714 3.74512 10.7402C3.74531 14.6061 6.8927 17.7451 10.75 17.7451H11.25C14.8836 17.4884 17.7549 14.4584 17.7549 10.7598C17.7548 6.89383 14.6074 3.75494 10.75 3.75488ZM10.75 9C11.7165 9 12.5 9.7835 12.5 10.75C12.4999 11.7164 11.7165 12.5 10.75 12.5C9.78354 12.5 9.00006 11.7164 9 10.75C9 9.7835 9.7835 9 10.75 9Z"></path></svg>