<svg xmlns="http://www.w3.org/2000/svg" width="16" height="16" viewBox="0 0 24 24" color="currentColor" class="transition-colors duration-300 text-super" fill="currentColor" fill-rule="evenodd"><path d="M11 2.125a8.378 8.378 0 0 1 8.375 8.375c0 .767-.1 1.508-.304 2.22l-.029.085a.875.875 0 0 1-1.653-.566l.054-.206c.12-.486.182-.996.182-1.533A6.628 6.628 0 0 0 11 3.875 6.628 6.628 0 0 0 4.375 10.5a6.628 6.628 0 0 0 10.402 5.445c.943-.654 2.242-.664 3.153.109l.176.165.001.002 4.066 4.184a.875.875 0 0 1-1.256 1.22l-4.064-4.185-.104-.088c-.263-.183-.646-.197-.975.03l-.001.003A8.378 8.378 0 0 1 2.625 10.5 8.378 8.378 0 0 1 11 2.125Zm0 7.09a1.3 1.3 0 1 1 0 2.6 1.3 1.3 0 0 1 0-2.6Z"></path></svg>