<svg xmlns="http://www.w3.org/2000/svg" width="24" height="24" viewBox="0 0 24 24" color="currentColor" class="relative duration-150 [grid-area:1/-1] group-hover:scale-110 text-text-200" fill="currentColor" fill-rule="evenodd"><path d="M22.1475 2.00586C22.1569 2.00616 22.1663 2.00721 22.1758 2.00781L22.209 2.00977C22.2435 2.01325 22.2773 2.01899 22.3105 2.02637C22.3158 2.02753 22.3209 2.02901 22.3262 2.03027C22.3568 2.03766 22.3858 2.04906 22.415 2.05957C22.5326 2.10177 22.6441 2.16668 22.7383 2.26074C22.7468 2.26924 22.7546 2.27835 22.7627 2.28711C22.7657 2.29033 22.7686 2.29361 22.7715 2.29688C22.8041 2.33334 22.8329 2.37193 22.8584 2.41211C22.8612 2.41654 22.8635 2.4213 22.8662 2.42578C22.8909 2.46628 22.9132 2.50759 22.9307 2.55078C22.972 2.65239 22.9951 2.76339 22.9951 2.87988V17.75C22.9951 18.2332 22.6033 18.6249 22.1201 18.625H7.6123L4.99219 21.2451H16.875C16.8776 20.7642 17.2684 20.3751 17.75 20.375C18.2332 20.3751 18.625 20.7668 18.625 21.25V22.1201C18.6249 22.6033 18.2332 22.9951 17.75 22.9951H2.87988C2.39673 22.9951 2.00495 22.6033 2.00488 22.1201V7.25L2.00977 7.16016C2.05476 6.71917 2.42703 6.37506 2.87988 6.375H17.3867L20.0068 3.75488H8.125C8.12231 4.23583 7.73158 4.625 7.25 4.625C6.76679 4.625 6.37506 4.2332 6.375 3.75V2.87988L6.37988 2.79004C6.42488 2.34901 6.7971 2.00488 7.25 2.00488H22.1201L22.1475 2.00586ZM18.625 7.6123V14.25C18.625 14.7332 18.2332 15.1249 17.75 15.125C17.2668 15.1249 16.875 14.7332 16.875 14.25V8.125H3.75488V20.0068L6.375 17.3867V10.75C6.375 10.2668 6.76675 9.875 7.25 9.875C7.73325 9.875 8.125 10.2668 8.125 10.75V16.875H21.2451V4.99219L18.625 7.6123ZM12.5 10.75C13.4665 10.75 14.25 11.5335 14.25 12.5C14.25 13.4665 13.4665 14.25 12.5 14.25C11.5335 14.25 10.75 13.4665 10.75 12.5C10.75 11.5335 11.5335 10.75 12.5 10.75Z"></path></svg>