<svg xmlns="http://www.w3.org/2000/svg" width="16" height="16" viewBox="0 0 24 24" fill="none" stroke="currentColor" stroke-width="1.7999999999999998" stroke-linecap="round" stroke-linejoin="round" class="tabler-icon tabler-icon-cpu "><path d="M5 5m0 1a1 1 0 0 1 1 -1h12a1 1 0 0 1 1 1v12a1 1 0 0 1 -1 1h-12a1 1 0 0 1 -1 -1z"></path><path d="M9 9h6v6h-6z"></path><path d="M3 10h2"></path><path d="M3 14h2"></path><path d="M10 3v2"></path><path d="M14 3v2"></path><path d="M21 10h-2"></path><path d="M21 14h-2"></path><path d="M14 21v-2"></path><path d="M10 21v-2"></path></svg>