<svg xmlns="http://www.w3.org/2000/svg" width="20" height="20" viewBox="0 0 24 24" color="currentColor" class="size-[18px] -translate-y-px" fill="currentColor" fill-rule="evenodd"><path d="M13.7718 4C18.3247 4 21.9993 7.68969 21.9993 12.2275C21.9992 16.7663 18.3105 20.4551 13.7718 20.4551C12.7177 20.455 11.6928 20.2498 10.7679 19.8828L10.7347 19.8701L10.6956 19.8506L10.6888 19.8477L10.7005 19.8506C10.2597 19.7402 9.99093 19.2935 10.1009 18.8525C10.2112 18.4114 10.6588 18.1427 11.0999 18.2529C11.201 18.2782 11.2994 18.3177 11.3802 18.3545C12.1137 18.6448 12.931 18.8086 13.7718 18.8086C17.401 18.8086 20.3527 15.8568 20.3528 12.2275C20.3528 8.59729 17.4133 5.64648 13.7718 5.64648C10.1295 5.64662 7.17822 8.59799 7.17802 12.2402C7.17802 12.6986 7.22473 13.1431 7.31181 13.5674L7.4124 13.9834L7.43974 14.1484C7.4658 14.5306 7.22073 14.892 6.8372 14.998C6.45383 15.1037 6.05889 14.9192 5.88505 14.5781L5.82451 14.4229L5.69853 13.8975C5.58917 13.3644 5.53154 12.8096 5.53154 12.2402C5.53174 7.68849 9.22001 4.00013 13.7718 4ZM10.6888 19.8477C10.6862 19.8469 10.6839 19.8467 10.6839 19.8467H10.6868L10.6888 19.8477ZM16.2591 8.95508C16.2902 8.95596 16.3209 8.96043 16.3519 8.96484L16.4017 8.9707C16.4046 8.9713 16.4075 8.97202 16.4104 8.97266C16.4181 8.97431 16.4253 8.97762 16.4329 8.97949C16.4707 8.98881 16.5077 8.99934 16.5433 9.01367C16.5527 9.01748 16.5613 9.02317 16.5706 9.02734C16.6042 9.04238 16.6372 9.05793 16.6683 9.07715C16.6781 9.08327 16.6869 9.09107 16.6966 9.09766C16.7271 9.11839 16.7571 9.13953 16.7845 9.16406C16.786 9.16545 16.7878 9.16657 16.7894 9.16797C16.8129 9.18943 16.8343 9.21289 16.8548 9.23633C16.8667 9.24994 16.878 9.26394 16.889 9.27832C16.9079 9.30307 16.9259 9.32817 16.9417 9.35449C16.9476 9.36436 16.9528 9.37463 16.9583 9.38477C16.9747 9.41493 16.9889 9.44591 17.0013 9.47754C17.0042 9.48503 17.0073 9.49241 17.0101 9.5C17.0231 9.53641 17.0326 9.5737 17.0403 9.61133C17.0427 9.62301 17.0453 9.63463 17.0472 9.64648C17.0535 9.68596 17.0573 9.72569 17.0579 9.76562C17.058 9.76941 17.0589 9.77354 17.0589 9.77734V13.8877C17.0587 14.3423 16.6902 14.7109 16.2356 14.7109C15.7811 14.7109 15.4126 14.3423 15.4124 13.8877V11.8701C12.0054 15.4487 9.45177 17.4947 7.53252 18.5244C5.5087 19.61 3.92643 19.6815 2.8792 18.8291L2.67705 18.6465C2.04543 18.0149 1.92632 17.1236 2.03642 16.2793C2.14798 15.424 2.50735 14.468 3.03545 13.4951C3.25239 13.0955 3.75298 12.9462 4.15263 13.1631C4.55218 13.38 4.69947 13.8807 4.48271 14.2803C4.01013 15.1509 3.74555 15.9076 3.66923 16.4912C3.59173 17.0854 3.72193 17.3609 3.84111 17.4805C4.09158 17.7309 4.8066 18.118 6.7542 17.0732C8.47468 16.1502 10.9246 14.2091 14.345 10.6006H12.1253C11.6707 10.6006 11.3022 10.2319 11.302 9.77734C11.302 9.32259 11.6705 8.95312 12.1253 8.95312H16.2356L16.2591 8.95508Z"></path></svg>